# xmcd CD database file
#
# Track frame offsets:
#	150
#	11698
#	26325
#	46125
#	61145
#	75115
#	88030
#	107156
#	122698
#	140471
#	154722
#	169645
#	180236
#	189964
#	202352
#	210733
#
# Disc length: 2932 seconds
#
# Revision: 0
# Processed by: cddbd v1.5.2PL0 Copyright (c) Steve Scherf et al.
# Submitted via: CDex 1.51
#
DISCID=c40b7210
DTITLE=Anita O'Day - 3 Originals -  CD 1
DYEAR=1900
DGENRE=Jazz
TTITLE0=Don't Be That Way - (Pick Up Yourself With Anita O'Day)
TTITLE1=Let's Face The Music And Dance
TTITLE2=I Never Had A Chance
TTITLE3=Stompin' At The Savoy
TTITLE4=Pick Yourself Up
TTITLE5=Stars Fell On Alabama
TTITLE6=Sweet Georgia Brown
TTITLE7=I Won't Dance
TTITLE8=The Man With A Horn
TTITLE9=I Used To Be Colour Blind
TTITLE10=There's A Lull In My Life
TTITLE11=Let's Begin
TTITLE12=Just One Of Those Things - (Anita O'Day Swings Cole Porter)
TTITLE13=Love For Sale
TTITLE14=You'd Be So Nice To Come Home To
TTITLE15=Easy To Love
EXTD=
EXTT0=
EXTT1=
EXTT2=
EXTT3=
EXTT4=
EXTT5=
EXTT6=
EXTT7=
EXTT8=
EXTT9=
EXTT10=
EXTT11=
EXTT12=
EXTT13=
EXTT14=
EXTT15=
PLAYORDER=
